<svg xmlns:xlink="http://www.w3.org/1999/xlink" xmlns="http://www.w3.org/2000/svg" x="0px" y="0px" viewBox="0 0 370.8 75.7" xml:space="preserve" width="370.8"  height="75.7" >
              <polygon class="header-logo__letter" points="78,0.6 78,6.3 53.8,6.3 53.8,24 78,24 78,29.7 53.8,29.7 53.8,47.3 78,47.3 78,53 46.6,53 46.6,0.6  " fill="#FFFFFF"></polygon>
          <polygon class="header-logo__letter" points="105.6,31.8 85.8,0.6 93.8,0.6 109.2,24.9 124.6,0.6 132.6,0.6 112.8,31.8 112.8,53 105.6,53   " fill="#FFFFFF"></polygon>
          <polygon class="header-logo__letter" points="147.5,0.6 180.4,42.5 180.4,0.6 187.6,0.6 187.6,53 179.6,53 147.6,12.2 147.6,53 140.3,53 140.3,0.6  " fill="#FFFFFF"></polygon>
          <path class="header-logo__letter" d="M205.8,6.4v40.8h4.9c7.2,0,12.8-1.8,16.9-5.4c4.5-4.1,6.8-9.1,6.8-15c0-5.9-2.3-10.9-6.8-15c-4.1-3.5-9.7-5.3-16.9-5.3
                H205.8z M210.7,0.6c9.6,0,17.1,2.5,22.4,7.4c5.7,5.2,8.6,11.5,8.6,18.8c0,7.4-2.9,13.7-8.7,19c-5.2,4.8-12.7,7.2-22.3,7.2h-12.2
                V0.6H210.7z" fill="#FFFFFF"></path>
          <polygon class="header-logo__letter" points="282.1,0.6 282.1,6.3 258,6.3 258,24 282.1,24 282.1,29.7 258,29.7 258,47.3 282.1,47.3 282.1,53 250.8,53
                250.8,0.6   " fill="#FFFFFF"></polygon>
          <path class="header-logo__letter" d="M352.3,25.7c-4.9-2.2-7-2.8-9.6-5.1c-2.6-2.3-3.7-5.1-3.7-8.4c0-3.2,1.2-6.1,3.9-8.5c2.7-2.4,6-3.7,9.9-3.7
                c3.9,0,7.2,1.3,10,3.8c1.4,1.3,2.6,3.1,3.4,5.4l-6.6,2.3c-0.8-2-1.5-3.3-2.2-3.9c-1.3-1.2-2.9-1.9-4.6-1.9c-1.7,0-3.2,0.6-4.5,1.8
                c-1.3,1.2-2,2.7-2,4.6c0,1.8,0.7,3.4,2,4.7c1.4,1.2,1.7,1.5,6.4,3.6s8,3.4,11.2,6.3c3.6,3.3,4.9,7.1,4.9,11.6
                c0,4.5-1.3,8.3-4.9,11.6c-3.6,3.3-8,4.9-13.2,4.9c-5.2,0-9.7-1.7-13.3-5c-2.8-2.5-4.6-5.9-5.2-9.9l7.1-2.3c0.4,3.9,1.7,6.7,3.6,8.5
                c2.2,2,4.8,3,7.8,3c3,0,5.7-1,7.9-3.1c2.3-2,3.4-4.6,3.4-7.6c0-3-1.1-5.5-3.3-7.5C358.5,28.7,357.2,27.9,352.3,25.7z" fill="#FFFFFF"></path>
          <path class="header-logo__letter" d="M31.9,55.4L5.7,27H21c5.6,0,10-4.8,10-10.4c0-5.6-4.5-10.3-10-10.3H0V0.6h21c9.1,0,16.6,6.8,16.6,16
                c0,9.1-7.9,16.8-17.1,16.8l0,0L36.7,51L31.9,55.4z" fill="#FFFFFF"></path>
          <path class="header-logo__letter" d="M322.2,55.4L296,27h15.3c5.6,0,10-4.8,10-10.4c0-5.6-4.5-10.3-10-10.3h-21V0.6h21c9.1,0,16.6,6.8,16.6,16
                c0,9.1-7.9,16.8-17.1,16.8l0,0L326.9,51L322.2,55.4z" fill="#FFFFFF"></path>
          <rect class="header-logo__line" x="0" y="64.4" width="36.7" height="11.3" fill="#FFFFFF"></rect>
            </svg>